<?xml version="1.0" standalone="no"?>
<!DOCTYPE svg PUBLIC "-//W3C//DTD SVG 20010904//EN"
 "http://www.w3.org/TR/2001/REC-SVG-20010904/DTD/svg10.dtd">
<svg version="1.0" xmlns="http://www.w3.org/2000/svg"
 width="192.000000pt" height="192.000000pt" viewBox="0 0 192.000000 192.000000"
 preserveAspectRatio="xMidYMid meet">
<metadata>
Created by potrace 1.11, written by Peter Selinger 2001-2013
</metadata>
<g transform="translate(0.000000,192.000000) scale(0.100000,-0.100000)"
fill="#000000" stroke="none">
<path d="M0 960 l0 -960 960 0 960 0 0 960 0 960 -960 0 -960 0 0 -960z m843
334 c25 -9 64 -33 86 -54 l39 -38 29 30 c121 128 323 90 411 -76 26 -50 27
-55 30 -265 2 -118 1 -224 -2 -237 -13 -50 -83 -56 -104 -9 -8 17 -12 94 -12
223 0 221 -6 247 -69 289 -69 46 -160 21 -205 -57 -19 -32 -21 -55 -24 -245
-3 -174 -6 -213 -19 -227 -20 -23 -51 -23 -75 -1 -16 14 -18 35 -18 205 0 104
-5 209 -11 232 -31 125 -187 157 -261 54 -22 -32 -23 -43 -28 -256 -5 -207 -6
-225 -24 -238 -27 -19 -52 -18 -76 6 -19 19 -20 33 -20 229 0 162 3 218 15
252 55 156 195 232 338 183z"/>
</g>
</svg>
