<svg xmlns="http://www.w3.org/2000/svg" width="163" height="56" viewBox="0 0 163 56">
    <g fill="none" fill-rule="evenodd">
        <rect width="163" height="56" fill="#000" rx="7"/>
        <path fill="#FFF" d="M63.128 40.944h-2.775l-1.52-4.839H53.55l-1.448 4.839h-2.701l5.234-16.474h3.233l5.26 16.474zm-4.753-6.87h-4.366l1.35-4.3c.355-1.369.613-2.404.773-3.104h.049c.402 1.629.674 2.664.82 3.103l1.374 4.302zm18.213.784c0 2.02-.539 3.618-1.616 4.79-.966 1.043-2.164 1.565-3.595 1.565-1.544 0-2.654-.562-3.33-1.686H68v6.257h-2.605V32.976c0-1.27-.033-2.574-.096-3.91h2.29l.146 1.882h.049c.868-1.419 2.187-2.127 3.956-2.127 1.383 0 2.537.554 3.461 1.661.926 1.11 1.388 2.568 1.388 4.376zm-2.654.097c0-1.156-.256-2.11-.772-2.86-.563-.782-1.32-1.173-2.267-1.173-.643 0-1.227.218-1.749.647-.523.434-.865 1-1.025 1.7-.08.327-.12.594-.12.805v1.98c0 .864.26 1.593.783 2.189.523.595 1.203.892 2.038.892.982 0 1.745-.383 2.291-1.148.548-.767.821-1.777.821-3.032zm16.139-.097c0 2.02-.539 3.618-1.618 4.79-.964 1.043-2.162 1.565-3.593 1.565-1.544 0-2.654-.562-3.328-1.686h-.05v6.257H78.88V32.976c0-1.27-.033-2.574-.096-3.91h2.29l.146 1.882h.049c.867-1.419 2.185-2.127 3.956-2.127 1.382 0 2.536.554 3.462 1.661.923 1.11 1.386 2.568 1.386 4.376zm-2.654.097c0-1.156-.258-2.11-.773-2.86-.564-.782-1.317-1.173-2.267-1.173-.644 0-1.226.218-1.75.647-.522.434-.863 1-1.023 1.7-.08.327-.121.594-.121.805v1.98c0 .864.261 1.593.782 2.189.523.594 1.202.892 2.04.892.981 0 1.745-.383 2.291-1.148.547-.767.821-1.777.821-3.032zm17.73 1.37c0 1.4-.48 2.54-1.444 3.42-1.059.962-2.534 1.443-4.429 1.443-1.75 0-3.152-.342-4.213-1.026l.603-2.2a7.07 7.07 0 0 0 3.766 1.052c.98 0 1.744-.225 2.293-.673.546-.449.819-1.05.819-1.8 0-.669-.225-1.232-.676-1.689-.449-.457-1.197-.881-2.243-1.274-2.847-1.075-4.27-2.651-4.27-4.723 0-1.355.5-2.465 1.497-3.33.995-.864 2.322-1.296 3.981-1.296 1.48 0 2.709.26 3.69.782l-.651 2.151c-.917-.505-1.953-.757-3.112-.757-.917 0-1.633.229-2.146.684a1.968 1.968 0 0 0-.65 1.492c0 .651.247 1.19.746 1.613.433.391 1.221.815 2.365 1.271 1.399.571 2.426 1.238 3.087 2.003.659.763.988 1.717.988 2.856zm8.613-5.28h-2.871v5.768c0 1.467.506 2.2 1.52 2.2.465 0 .851-.041 1.157-.123l.072 2.004c-.513.195-1.189.293-2.026.293-1.029 0-1.833-.319-2.413-.954-.578-.636-.869-1.703-.869-3.202v-5.988h-1.71v-1.98h1.71v-2.175l2.559-.783v2.958h2.87v1.983zm12.954 3.862c0 1.826-.515 3.325-1.544 4.497-1.079 1.207-2.51 1.809-4.296 1.809-1.72 0-3.09-.579-4.11-1.735-1.022-1.156-1.533-2.615-1.533-4.374 0-1.841.525-3.349 1.58-4.521 1.052-1.174 2.471-1.76 4.256-1.76 1.72 0 3.105.578 4.15 1.735.999 1.123 1.497 2.572 1.497 4.349zm-2.702.085c0-1.095-.231-2.035-.699-2.819-.546-.948-1.327-1.42-2.338-1.42-1.048 0-1.843.473-2.389 1.42-.468.785-.699 1.74-.699 2.869 0 1.095.231 2.035.699 2.817.563.948 1.35 1.421 2.365 1.421.995 0 1.776-.483 2.339-1.446.48-.798.722-1.748.722-2.842zm11.17-3.606a4.466 4.466 0 0 0-.822-.073c-.916 0-1.625.35-2.123 1.052-.434.62-.651 1.402-.651 2.346v6.233h-2.604l.025-8.138c0-1.37-.033-2.616-.098-3.74h2.269l.095 2.273h.072c.275-.781.709-1.41 1.302-1.882.58-.424 1.208-.636 1.883-.636.24 0 .458.018.651.048v2.517zm11.65 3.056c0 .473-.031.872-.096 1.198h-7.815c.03 1.173.408 2.07 1.134 2.69.659.553 1.51.83 2.556.83 1.157 0 2.213-.187 3.162-.562l.408 1.832c-1.11.49-2.419.734-3.93.734-1.818 0-3.245-.542-4.284-1.625-1.036-1.083-1.555-2.538-1.555-4.362 0-1.792.482-3.283 1.449-4.473 1.011-1.27 2.379-1.905 4.099-1.905 1.69 0 2.969.635 3.837 1.905.688 1.009 1.034 2.257 1.034 3.738zm-2.485-.684c.017-.782-.153-1.458-.506-2.029-.45-.734-1.143-1.1-2.075-1.1-.852 0-1.545.357-2.074 1.075-.433.57-.691 1.255-.77 2.053h5.425zM57.514 14.335c0 1.457-.432 2.554-1.293 3.29-.798.68-1.932 1.02-3.4 1.02-.728 0-1.352-.031-1.873-.096v-7.96c.68-.112 1.413-.17 2.205-.17 1.399 0 2.453.31 3.164.926.797.697 1.197 1.693 1.197 2.99zm-1.35.036c0-.944-.247-1.668-.74-2.173-.495-.504-1.215-.757-2.165-.757a5.35 5.35 0 0 0-1.03.084v6.052c.157.025.445.036.864.036.98 0 1.736-.276 2.269-.828.533-.552.801-1.357.801-2.414zm8.508 1.237c0 .897-.253 1.633-.759 2.21-.53.593-1.233.888-2.11.888-.845 0-1.518-.283-2.02-.853-.502-.568-.752-1.284-.752-2.149 0-.903.258-1.645.776-2.22.518-.576 1.214-.864 2.092-.864.845 0 1.524.283 2.039.851.488.552.734 1.265.734 2.137zm-1.328.042c0-.538-.115-1-.343-1.385-.27-.466-.652-.698-1.149-.698-.514 0-.905.232-1.174.698-.23.385-.343.854-.343 1.409 0 .538.114 1 .343 1.385.277.465.663.698 1.162.698.489 0 .872-.237 1.148-.71.237-.393.356-.859.356-1.397zm10.926-2.912l-1.802 5.836h-1.173l-.746-2.534a19.171 19.171 0 0 1-.463-1.885h-.024a13.953 13.953 0 0 1-.463 1.885l-.793 2.534H67.62l-1.694-5.836h1.315l.652 2.775c.157.656.287 1.28.39 1.873h.024c.095-.488.253-1.11.475-1.861l.817-2.785h1.044l.783 2.726c.19.664.343 1.304.462 1.92h.035c.087-.6.218-1.24.391-1.92l.7-2.726h1.256v-.002zm6.638 5.836h-1.28v-3.342c0-1.03-.386-1.545-1.16-1.545-.38 0-.688.14-.926.424a1.519 1.519 0 0 0-.355 1v3.462h-1.28v-4.167c0-.513-.017-1.068-.047-1.67h1.125l.06.912h.035c.15-.283.372-.517.664-.704a2.143 2.143 0 0 1 1.16-.328c.538 0 .985.176 1.34.528.443.433.664 1.077.664 1.934v3.496zm2.252-8.513h1.28v8.513h-1.28V10.06zm8.818 5.547c0 .897-.253 1.633-.76 2.21-.53.593-1.233.888-2.11.888-.846 0-1.52-.283-2.02-.853-.5-.568-.751-1.284-.751-2.149 0-.903.257-1.645.775-2.22.518-.576 1.215-.864 2.09-.864.848 0 1.526.283 2.041.851.489.552.735 1.265.735 2.137zm-1.33.042c0-.538-.115-1-.343-1.385-.268-.466-.651-.698-1.147-.698-.516 0-.907.232-1.174.698-.23.385-.344.854-.344 1.409 0 .538.115 1 .344 1.385.277.465.663.698 1.161.698.49 0 .872-.237 1.148-.71.238-.393.355-.859.355-1.397zm7.526 2.924h-1.15l-.095-.672h-.035c-.393.536-.954.804-1.682.804-.544 0-.984-.177-1.315-.528-.3-.32-.45-.717-.45-1.189 0-.713.292-1.256.882-1.632.59-.377 1.418-.561 2.484-.552v-.11c0-.768-.398-1.152-1.196-1.152-.568 0-1.069.145-1.501.432l-.26-.852c.535-.335 1.196-.503 1.975-.503 1.505 0 2.26.804 2.26 2.414v2.149c0 .583.028 1.047.083 1.39zm-1.329-2.005v-.9c-1.412-.025-2.118.367-2.118 1.176 0 .304.08.532.245.684a.889.889 0 0 0 .626.228c.28 0 .543-.09.783-.27a1.107 1.107 0 0 0 .464-.918zm8.605 2.005h-1.136l-.06-.937h-.035c-.363.713-.981 1.07-1.85 1.07-.694 0-1.272-.277-1.73-.829-.458-.552-.687-1.269-.687-2.149 0-.944.248-1.71.747-2.294.482-.544 1.074-.817 1.777-.817.774 0 1.315.264 1.623.793h.024v-3.35h1.282V17c0 .569.015 1.093.045 1.573zm-1.327-2.461v-.973c0-.168-.012-.305-.035-.409a1.481 1.481 0 0 0-.463-.786 1.249 1.249 0 0 0-.857-.318c-.477 0-.851.192-1.126.577-.273.385-.41.877-.41 1.477 0 .577.13 1.045.393 1.405.277.384.651.576 1.119.576.42 0 .756-.16 1.012-.48.246-.297.367-.653.367-1.069zm12.278-.505c0 .897-.253 1.633-.759 2.21-.53.593-1.231.888-2.11.888-.844 0-1.517-.283-2.02-.853-.502-.568-.752-1.284-.752-2.149 0-.903.258-1.645.776-2.22.518-.576 1.214-.864 2.093-.864.844 0 1.525.283 2.038.851.488.552.734 1.265.734 2.137zm-1.327.042c0-.538-.115-1-.343-1.385-.27-.466-.651-.698-1.15-.698-.513 0-.904.232-1.174.698-.23.385-.343.854-.343 1.409 0 .538.114 1 .343 1.385.277.465.663.698 1.162.698.489 0 .873-.237 1.15-.71.235-.393.355-.859.355-1.397zm8.212 2.924h-1.28v-3.342c0-1.03-.386-1.545-1.161-1.545-.38 0-.687.14-.924.424a1.512 1.512 0 0 0-.356 1v3.462h-1.281v-4.167c0-.513-.015-1.068-.045-1.67h1.124l.06.912h.035c.15-.283.373-.517.663-.704a2.147 2.147 0 0 1 1.162-.328c.537 0 .984.176 1.34.528.443.433.663 1.077.663 1.934v3.496zm8.617-4.864h-1.41v2.835c0 .72.25 1.08.747 1.08.23 0 .42-.02.57-.06l.033.984c-.253.097-.585.145-.994.145-.506 0-.9-.156-1.184-.468-.286-.312-.428-.837-.428-1.573V13.71h-.842v-.972h.842v-1.07l1.255-.383v1.452h1.41v.973zm6.778 4.864H137.4v-3.318c0-1.046-.386-1.57-1.16-1.57-.594 0-1 .304-1.222.91a1.65 1.65 0 0 0-.06.467v3.51h-1.279V10.06h1.28v3.517h.024c.403-.64.981-.96 1.73-.96.53 0 .969.176 1.317.529.434.44.651 1.093.651 1.957v3.47zm6.993-3.194c0 .233-.017.428-.048.588h-3.84c.017.577.2 1.016.556 1.321.325.272.744.408 1.257.408.568 0 1.086-.091 1.553-.276l.2.902c-.546.24-1.188.36-1.933.36-.891 0-1.594-.266-2.102-.799-.51-.532-.764-1.246-.764-2.142 0-.88.236-1.613.711-2.198.496-.624 1.167-.936 2.014-.936.828 0 1.457.312 1.882.936.344.495.514 1.108.514 1.836zm-1.222-.335a1.765 1.765 0 0 0-.248-.997c-.223-.36-.561-.54-1.02-.54-.417 0-.758.175-1.018.528a1.98 1.98 0 0 0-.38 1.009h2.666zM34.048 26.949c.04 4.82 4.163 6.413 4.214 6.43-.025.113-.646 2.3-2.192 4.521-1.292 1.956-2.644 3.867-4.793 3.902-2.088.049-2.79-1.244-5.184-1.244-2.417 0-3.165 1.21-5.167 1.293-2.047.076-3.61-2.088-4.949-4.026-2.675-3.956-4.757-11.15-1.965-16.044 1.353-2.4 3.82-3.947 6.457-3.988 2.049-.042 3.95 1.401 5.21 1.401 1.234 0 3.585-1.726 6.01-1.468 1.013.03 3.9.405 5.76 3.154-.15.091-3.437 2.048-3.401 6.069zm-3.943-11.826c-1.124 1.343-2.922 2.37-4.673 2.237-.229-1.811.658-3.738 1.651-4.913 1.123-1.334 3.072-2.356 4.631-2.426.205 1.883-.532 3.738-1.61 5.102z"/>
    </g>
</svg>
