<svg xmlns="http://www.w3.org/2000/svg" width="163" height="56" viewBox="0 0 163 56">
    <defs>
        <linearGradient id="a" x1="50%" x2="50%" y1="0%" y2="100%">
            <stop offset="0%" stop-color="#1E79AF"/>
            <stop offset="100%" stop-color="#63FFD3"/>
        </linearGradient>
        <linearGradient id="b" x1="84.718%" x2="5.244%" y1="14.446%" y2="96.562%">
            <stop offset="0%" stop-color="#DC4057"/>
            <stop offset="100%" stop-color="#9E36BB"/>
        </linearGradient>
        <linearGradient id="c" x1="50%" x2="50%" y1="0%" y2="97.826%">
            <stop offset="0%" stop-color="#FF9676"/>
            <stop offset="100%" stop-color="#FFD074"/>
        </linearGradient>
        <linearGradient id="d" x1="17.444%" y1="0%" y2="100%">
            <stop offset="0%" stop-color="#51C6AD"/>
            <stop offset="100%" stop-color="#D5FFA1"/>
        </linearGradient>
    </defs>
    <g fill="none" fill-rule="evenodd">
        <rect width="163" height="56" fill="#000" rx="7"/>
        <path fill="url(#a)" d="M1.02.998c-.46.147-.757.622-.757 1.34L.266 24.94c0 .71.288 1.178.735 1.334l12.386-12.648L1.02.998" transform="translate(12.18 21.849)"/>
        <path fill="url(#b)" d="M1 26.275c.322.111.725.06 1.163-.186L17.278 17.6l-3.891-3.974L1 26.275" transform="translate(12.18 21.849)"/>
        <path fill="url(#c)" d="M17.28 17.6l5.155-2.893c1.045-.59 1.045-1.547 0-2.135L17.26 9.668l-3.874 3.956 3.894 3.977" transform="translate(12.18 21.849)"/>
        <path fill="url(#d)" d="M17.26 9.668L2.164 1.19C1.735.952 1.34.896 1.021.998l12.366 12.626 3.874-3.956" transform="translate(12.18 21.849)"/>
        <path fill="#FFF" d="M56.494 41.005l-3.201.748c-1.297.21-2.462.393-3.695.393-6.174 0-8.527-4.641-8.527-8.273 0-4.436 3.333-8.549 9.042-8.549 1.208 0 2.37.182 3.428.477 1.678.48 2.463 1.074 2.953 1.422l-1.86 1.803-.783.18.558-.91c-.757-.756-2.148-2.15-4.79-2.15-3.531 0-6.195 2.742-6.195 6.744 0 4.298 3.042 8.342 7.92 8.342 1.434 0 2.172-.294 2.842-.569v-3.685l-3.38.186 1.791-.983h4.744l-.58.57c-.157.136-.178.182-.222.364-.023.208-.045.87-.045 1.103v2.787zm7.341.846c-3.796 0-5.823-3.018-5.823-5.75 0-3.194 2.553-5.925 6.183-5.925 3.508 0 5.705 2.806 5.705 5.752 0 2.878-2.17 5.923-6.065 5.923zm2.987-1.973c.573-.78.716-1.754.716-2.703 0-2.148-1.005-6.243-3.963-6.243-.79 0-1.575.314-2.149.827-.934.854-1.1 1.926-1.1 2.978 0 2.409 1.172 6.382 4.061 6.382.932 0 1.884-.462 2.435-1.24zm9.72 1.973c-3.795 0-5.826-3.018-5.826-5.75 0-3.194 2.553-5.925 6.184-5.925 3.51 0 5.71 2.806 5.71 5.752 0 2.878-2.174 5.923-6.068 5.923zm2.986-1.973c.578-.78.718-1.754.718-2.703 0-2.148-1.002-6.243-3.963-6.243a3.29 3.29 0 0 0-2.153.827c-.932.854-1.099 1.926-1.099 2.978 0 2.409 1.166 6.382 4.06 6.382.934 0 1.888-.462 2.437-1.24zm11.818-8.506c.549.46 1.693 1.437 1.693 3.29 0 1.805-.997 2.656-2.003 3.462-.308.317-.67.661-.67 1.193 0 .54.362.832.621 1.05l.863.68c1.049.904 2.005 1.733 2.005 3.416 0 2.294-2.174 4.607-6.282 4.607-3.46 0-5.132-1.683-5.132-3.487 0-.878.428-2.122 1.84-2.974 1.48-.924 3.486-1.047 4.56-1.12-.336-.442-.718-.905-.718-1.66 0-.414.121-.66.239-.95-.261.025-.525.05-.764.05-2.532 0-3.964-1.928-3.964-3.83 0-1.12.501-2.365 1.53-3.267 1.362-1.144 2.985-1.341 4.275-1.341h4.92l-1.53.881h-1.483zm-1.692 10.824c-.196-.026-.313-.026-.55-.026-.216 0-1.506.048-2.505.39-.528.198-2.056.78-2.056 2.513 0 1.728 1.65 2.974 4.2 2.974 2.293 0 3.51-1.122 3.51-2.633 0-1.243-.787-1.9-2.599-3.218zm.687-4.633c.552-.562.6-1.34.6-1.781 0-1.754-1.024-4.485-3.009-4.485-.619 0-1.29.317-1.67.808-.404.508-.525 1.167-.525 1.8 0 1.633.932 4.341 2.983 4.341.599 0 1.243-.297 1.62-.683zm7.531 2.147c0 .947.166 1.095.95 1.169.41.05.817.07 1.22.12l-.883.537h-4.208c.552-.731.647-.804.647-1.291V39.7l-.01-14.497h-1.857l1.788-.88h3.415c-.74.438-.961.704-1.056 1.558l-.006 13.828zm11.737.189l-1.142 1.1c-.264.148-.527.32-.789.442-.793.368-1.6.46-2.316.46-.763 0-1.959-.05-3.179-.951-1.694-1.22-2.435-3.314-2.435-5.14 0-3.78 3.014-5.634 5.472-5.634.859 0 1.741.22 2.458.682 1.193.806 1.502 1.853 1.673 2.414l-5.613 2.315-1.838.146c.595 3.1 2.648 4.903 4.917 4.903 1.134 0 1.975-.378 2.747-.768 0 0 .155-.082.045.03zm-3.387-6.166c.456-.169.693-.315.693-.654 0-.974-1.08-2.1-2.367-2.1-.954 0-2.745.76-2.745 3.394 0 .41.049.849.073 1.287l4.346-1.927zm10.27 6.27v6.21h-1.209V30.41h1.208v1.8c.787-1.163 2.225-2.085 3.895-2.085 2.995 0 5.012 2.32 5.012 5.993 0 3.648-2.017 6.016-5.012 6.016-1.577 0-2.989-.83-3.895-2.131zm7.609-3.885c0-2.768-1.414-4.88-3.919-4.88-1.556 0-3.044 1.249-3.69 2.338v5.058c.646 1.091 2.134 2.385 3.69 2.385 2.505 0 3.919-2.13 3.919-4.901zm2.947-10.071h1.207v15.802h-1.207V26.047zm11.232 15.768a21.64 21.64 0 0 1-.187-1.038 7.109 7.109 0 0 1-.058-.891c-.413.62-1 1.137-1.75 1.544-.75.41-1.462.61-2.44.61-1.176 0-2.09-.295-2.74-.895-.65-.6-.977-1.41-.977-2.437 0-1.025.473-1.858 1.417-2.494.944-.64 2.164-.958 3.674-.958h2.816v-1.42c0-.82-.273-1.463-.818-1.93-.548-.467-1.316-.704-2.313-.704-.91 0-1.649.216-2.211.637-.558.429-.839.96-.839 1.602h-1.236l-.026-.062c-.044-.864.343-1.622 1.166-2.276.82-.654 1.893-.983 3.214-.983 1.316 0 2.382.324 3.185.97.803.639 1.205 1.563 1.205 2.771v5.643c0 .405.02.797.069 1.178.05.383.132.764.24 1.133h-1.391zm-4.286-.898c1.026 0 1.763-.235 2.517-.698.748-.46 1.258-1.06 1.524-1.787v-2.197h-2.83c-1.081 0-1.976.245-2.68.737-.706.492-1.063 1.086-1.063 1.778 0 .652.227 1.174.677 1.57.451.399 1.068.597 1.855.597zm7.814 4.274c.258.118.699.19.978.19.739 0 1.253-.308 1.715-1.398l.881-2.038-4.758-11.535h1.348l4.081 9.996 4.042-9.996h1.366l-5.803 13.955c-.602 1.438-1.55 2.13-2.85 2.13-.391 0-.906-.071-1.208-.166l.208-1.138zM40.981 13.018c0-2.454 1.8-4.033 4.04-4.033 1.5 0 2.481.725 3.093 1.613l-1.096.643a2.474 2.474 0 0 0-1.997-1.04c-1.523 0-2.655 1.169-2.655 2.817 0 1.623 1.132 2.816 2.655 2.816.785 0 1.477-.362 1.824-.701v-1.204h-2.309v-1.204h3.648v2.91a4.136 4.136 0 0 1-3.163 1.426c-2.24 0-4.04-1.6-4.04-4.043zm8.873 3.891V9.114h5.274v1.204h-3.925v2.01h3.844v1.204h-3.844v2.173h3.925v1.204h-5.274zm9.01 0v-6.59h-2.33V9.113h6.012v1.204h-2.331v6.591h-1.35zm8.375-7.795h1.35v7.795h-1.35V9.114zm5.111 7.795v-6.59h-2.33V9.113h6.012v1.204h-2.331v6.591h-1.35zm8.04-3.891c0-2.327 1.627-4.033 3.937-4.033 2.296 0 3.935 1.706 3.935 4.033 0 2.325-1.64 4.031-3.935 4.031-2.31 0-3.936-1.706-3.936-4.031zm6.487 0c0-1.613-1.004-2.816-2.55-2.816-1.559 0-2.551 1.203-2.551 2.816 0 1.6.992 2.816 2.551 2.816 1.546 0 2.55-1.216 2.55-2.816zm8.33 3.891l-4.018-5.574v5.574h-1.35V9.114h1.386l3.935 5.4v-5.4h1.35v7.795h-1.304z"/>
    </g>
</svg>
