<svg xmlns="http://www.w3.org/2000/svg" xmlns:xlink="http://www.w3.org/1999/xlink" width="14" height="14" viewBox="0 0 14 14">
    <defs>
        <path id="a" d="M7.333 11.333h1.334v-4H7.333v4zm.667-10A6.67 6.67 0 0 0 1.333 8 6.67 6.67 0 0 0 8 14.667 6.67 6.67 0 0 0 14.667 8 6.67 6.67 0 0 0 8 1.333zm0 12A5.34 5.34 0 0 1 2.667 8 5.34 5.34 0 0 1 8 2.667 5.34 5.34 0 0 1 13.333 8 5.34 5.34 0 0 1 8 13.333zM7.333 6h1.334V4.667H7.333V6z"/>
    </defs>
    <g fill="none" fill-rule="evenodd" transform="translate(-1 -1)">
        <path d="M0 0h16v16H0z"/>
        <use fill="#FFF" xlink:href="#a"/>
    </g>
</svg>
