<svg xmlns="http://www.w3.org/2000/svg" xmlns:xlink="http://www.w3.org/1999/xlink" width="24" height="24" viewBox="0 0 24 24">
    <defs>
        <rect id="a" width="24" height="24" rx="9"/>
    </defs>
    <g fill="none" fill-rule="evenodd">
        <mask id="b" fill="#fff">
            <use xlink:href="#a"/>
        </mask>
        <use fill="#FFF" xlink:href="#a"/>
        <path fill="#7E61F8" d="M11.934 8.916A3.706 3.706 0 0 0 9.022 7.5c-2.044 0-3.772 1.701-3.772 3.715v4.465c0 .422.408.82.839.82.441 0 .8-.367.8-.82v-4.465A2.107 2.107 0 0 1 9.022 9.14c1.163 0 2.075.911 2.076 2.074v4.467c.01.453.38.82.82.82.46 0 .82-.367.82-.82v-4.465a2.107 2.107 0 0 1 2.131-2.076c1.164 0 2.076.912 2.076 2.076v4.465c0 .444.376.82.82.82.436 0 .82-.383.82-.82v-4.465A3.72 3.72 0 0 0 14.868 7.5c-1.171 0-2.237.56-2.935 1.416z" mask="url(#b)"/>
    </g>
</svg>
