<svg xmlns="http://www.w3.org/2000/svg" width="24" height="24" viewBox="0 0 24 24">
    <g fill="none" fill-rule="evenodd">
        <circle cx="12" cy="12" r="12" fill="#C2C4C6"/>
        <g fill="#231F20" fill-rule="nonzero">
            <path d="M10.716 7.462c.124 0 .048-.3.272-.334-.369-.039-.394.341-.272.334zM11.325 7.22c.193-.104.194.301.298.235.105-.066-.001-.526-.298-.234z"/>
            <path d="M18.364 16.538c-.254-.155-.85-.318-.905-1.447-.229.197-.202 1.25.433 1.459.71.237 1.153.623-.166 1.069-.873.292-1.021.381-1.713.95-.692.569-1.737.343-1.556-.856.094-.625.15-1.142-.01-1.686a1.879 1.879 0 0 1-.063-.844c.103-.464.364-.604.607-.158.158.28.212.607.778.633.888.041 1.064-.84 1.348-.88.19-.027.38-.552.236-1.4-.155-.908-.702-2.343-1.402-3.071-.583-.617-.95-1.143-1.18-1.9a5.17 5.17 0 0 1-.262-1.846c.05-.766-.382-1.832-1.074-2.335-.434-.313-1.112-.482-1.726-.475a2.049 2.049 0 0 0-.92.184c-1.025.545-1.165 1.323-1.152 2.212.014.831.043 1.782.14 2.693-.115.415-.712 1.204-1.092 1.684-.517.497-.776 1.456-1.108 2.296-.178.447-.476.649-.502 1.225-.007.16 0 .576.156.457.6-.455 1.353.692 2.49 2.443.218.335.986 1.749-.364 1.933-.45.06-1.175-.257-1.877-.425-.632-.151-1.271-.238-1.63-.339-.217-.06-.307-.135-.326-.223-.05-.238.262-.564.278-.842.016-.278-.103-.422-.2-.649-.097-.227-.122-.397-.045-.494.06-.076.184-.108.386-.088.25.026.502-.018.728-.126.278-.166.41-.508.284-.92 0 .403-.135.556-.473.74-.318.173-.81.033-1.036.225-.273.23.097.832.067 1.265-.023.336-.382.713-.222 1.053.16.34.912.376 1.7.535 1.111.229 1.76.625 2.274.643.75.027.864-.726 2.042-.735.342-.018.678-.029 1.013-.032.38 0 .76 0 1.15.007.783.019.513.418 1.022.673.428.217 1.2.131 1.384-.041.25-.238.92-.794 1.433-1.047.639-.314 2.148-.858 1.055-1.52zm-4.067.303c-.04.484-.178.964-.255 1.45-.261-.01-.236-.197-.152-.46.074-.238.194-.523.201-.803.008-.253-.02-.41-.086-.45-.065-.039-.167.04-.308.263-.3.475-.952.682-1.56.756-.608.075-1.172.016-1.472-.312-.102-.119-.272.03-.293.06-.02.03.1.12.194.288.139.25.271.627-.058.8 0-.877-.28-.928-.57-1.465a.546.546 0 0 0 .485-.333.526.526 0 0 0-.11-.569c-.22-.211-1.435-1.094-1.752-1.44-.147-.162-.347-.238-.43-.422-.195-.416-.327-1.011-.085-1.437.044-.078.073-.043.04.118-.195.91.412 1.655.546 1.273.092-.263.006-.735.055-1.11.087-.662.703-1.935.971-2.007-.417-.757.486-1.35.486-2.014-.007-.432.387.531.784.736.443.228.931-.43 1.623-.764.195-.094.447-.202.43-.283-.082-.388-.91.475-1.649.509-.336.013-.46-.066-.592-.188-.393-.373.04-.062.626-.166.216-.04.425-.105.623-.198.294-.136.596-.254.904-.356.219-.058.2-.217.122-.266-.049-.027-.122-.025-.179.072-.133.227-.764.357-.961.417a2.61 2.61 0 0 1-.915.133c-.564-.022-.432-.275-.837-.5-.121-.067-.086-.238.072-.395.082-.081.308-.126.42-.31.08-.094.172-.177.273-.25.039-.026.043-.7-.31-.712-.302-.012-.387.215-.375.442.013.226.136.414.218.413.158 0 .01.169-.077.196-.13.041-.31-.505-.29-.767.02-.263.168-.758.522-.749.318.009.549.4.537 1.07 0 .118.517-.054.69.124.12.128-.425-1.188.795-1.285.32.06.63.165.758.887-.048.076.08.58-.122.64-.242.073-.392-.01-.252-.237.096-.227 0-.803-.486-.769-.485.035-.424.885-.29.902.133.016.472.252.708.297.774.147.205.582.306 1.108.114.594.513.437.873 2.01.075.096.373.187.664 1.395.26 1.088-.11 1.88.518 1.814a.45.45 0 0 0 .438-.356c.234-.806-.121-1.765-.473-2.414a3.043 3.043 0 0 0-.506-.722c.407.238.93.99 1.05 1.544.157.735.27 1.047.031 1.823.137.068.486.21.486.371-.357-.287-1.457-.338-1.48.35-.187 0-.329.017-.45.157-.439.513-.03 1.54-.074 2.09z"/>
        </g>
    </g>
</svg>
