<svg xmlns="http://www.w3.org/2000/svg" width="32" height="24" viewBox="0 0 32 24">
    <g fill="#C2C4C6" fill-rule="nonzero">
        <path d="M0 0h32v24H0V0zm30.545 1.412H1.455v21.176h29.09V1.412z"/>
        <path d="M11.92 7.765h-.704c-.211 0-.352.14-.352.353v2.117c0 .212.14.353.352.353h.704c.212 0 .353-.14.353-.353V8.118c0-.212-.141-.353-.353-.353zM21.784 7.765h-.704c-.212 0-.353.14-.353.353v2.117c0 .212.141.353.353.353h.704c.211 0 .352-.14.352-.353V8.118c0-.212-.14-.353-.352-.353z"/>
        <path d="M23.37 14.365a.714.714 0 0 0-.987-.07c-1.127 1.023-2.501 1.623-4.227 1.834-.247-1.694-.247-3.388-.247-3.423v-.353c0-.212-.14-.353-.352-.353H15.83c.105-1.27.493-3.988 1.937-5.93.247-.317.176-.74-.14-.988-.318-.247-.74-.176-.987.142-2.22 2.964-2.255 7.305-2.255 7.482v.353c0 .212.141.353.353.353H16.5c.035.67.07 1.73.211 2.823h-.246c-2.537 0-4.404-.6-5.883-1.94-.282-.248-.74-.248-.987.07-.246.282-.246.74.07.988 1.762 1.553 3.911 2.294 6.8 2.294h.493c.07.318.176.635.247.953.105.282.387.494.669.494.07 0 .14 0 .211-.035.352-.106.564-.53.458-.883-.07-.176-.106-.388-.176-.6 1.973-.282 3.558-.988 4.897-2.188a.703.703 0 0 0 .105-1.023z"/>
    </g>
</svg>
