<svg xmlns="http://www.w3.org/2000/svg" width="24" height="24" viewBox="0 0 24 24">
    <g fill="none" fill-rule="evenodd">
        <path d="M0 0h24v24H0z"/>
        <path fill="#CDBDB2" d="M6.877 21.547l3.12.867V21.28l.255-.267h1.783v2.269h-1.91l-2.356-1.068z"/>
        <path fill="#CDBDB2" d="M17.066 21.547l-3.057.867V21.28l-.254-.267h-1.783v2.269h1.91l2.356-1.068z"/>
        <path fill="#393939" d="M10.252 19.079l-.254 2.201.318-.267h3.311l.382.267-.254-2.201-.51-.334-2.547.067z"/>
        <path fill="#F89C35" d="M8.533 4.202l1.528 3.736.7 10.874h2.484l.764-10.874 1.401-3.736z"/>
        <path fill="#F89D35" d="M1.847 12.408L.064 17.81l4.457-.267h2.866V15.21l-.128-4.804-.636.534z"/>
        <path fill="#D87C30" d="M5.222 13.008l5.221.134-.573 2.801-2.483-.667z"/>
        <path fill="#EA8D3A" d="M5.222 13.075l2.165 2.135v2.134z"/>
        <path fill="#F89D35" d="M7.387 15.276l2.547.667.828 2.869-.573.334-2.802-1.735z"/>
        <path fill="#EB8F35" d="M7.387 17.411l-.51 4.136 3.375-2.468z"/>
        <path fill="#EA8E3A" d="M10.443 13.142l.319 5.67-.955-2.902z"/>
        <path fill="#D87C30" d="M4.458 17.478l2.929-.067-.51 4.136z"/>
        <path fill="#EB8F35" d="M1.465 23.348l5.412-1.8-2.42-4.07-4.393.333z"/>
        <path fill="#E8821E" d="M10.061 7.938L7.323 10.34l-2.101 2.668 5.221.2z"/>
        <path fill="#DFCEC3" d="M6.877 21.547l3.375-2.468-.254 2.135v1.2l-2.293-.467zM17.066 21.547l-3.311-2.468.254 2.135v1.2l2.293-.467z"/>
        <path fill="#393939" d="M9.042 14.342l.7 1.535-2.483-.667z"/>
        <path fill="#E88F35" d="M1.4 1.067l8.661 6.871-1.464-3.736z"/>
        <path fill="#8E5A30" d="M1.4 1.067L.256 4.736l.637 4.003-.446.266.637.6-.51.468.7.667-.445.4 1.019 1.334 4.776-1.534c2.335-1.957 3.48-2.958 3.438-3.002-.042-.044-2.929-2.335-8.66-6.871z"/>
        <g>
            <path fill="#F89D35" d="M22.097 12.408l1.783 5.403-4.458-.267h-2.865V15.21l.127-4.804.637.534z"/>
            <path fill="#D87C30" d="M18.722 13.008l-5.222.134.573 2.801 2.484-.667z"/>
            <path fill="#EA8D3A" d="M18.722 13.075l-2.165 2.135v2.134z"/>
            <path fill="#F89D35" d="M16.557 15.276l-2.548.667-.827 2.869.573.334 2.802-1.735z"/>
            <path fill="#EB8F35" d="M16.557 17.411l.509 4.136-3.311-2.401z"/>
            <path fill="#EA8E3A" d="M13.5 13.142l-.318 5.67.955-2.902z"/>
            <path fill="#D87C30" d="M19.486 17.478l-2.93-.067.51 4.136z"/>
            <path fill="#EB8F35" d="M22.479 23.348l-5.413-1.8 2.42-4.07 4.394.333z"/>
            <path fill="#E8821E" d="M13.882 7.938l2.738 2.402 2.102 2.668-5.222.2z"/>
            <path fill="#393939" d="M14.9 14.342l-.7 1.535 2.484-.667z"/>
            <path fill="#E88F35" d="M22.542 1.067l-8.66 6.871 1.465-3.736z"/>
            <path fill="#8E5A30" d="M22.542 1.067l1.147 3.669-.637 4.003.446.266-.637.6.51.468-.701.667.446.4-1.02 1.334-4.775-1.534c-2.335-1.957-3.481-2.958-3.439-3.002.043-.044 2.93-2.335 8.66-6.871z"/>
        </g>
    </g>
</svg>
