<svg xmlns="http://www.w3.org/2000/svg" xmlns:xlink="http://www.w3.org/1999/xlink" width="48" height="48" viewBox="0 0 48 48">
    <defs>
        <path id="b" d="M21.423 0h5.154c6.041 0 9.281.835 12.215 2.404a16.356 16.356 0 0 1 6.804 6.804C47.165 12.142 48 15.382 48 21.423v5.154c0 6.041-.835 9.281-2.404 12.215a16.356 16.356 0 0 1-6.804 6.804C35.858 47.165 32.618 48 26.577 48h-5.154c-6.041 0-9.281-.835-12.215-2.404a16.356 16.356 0 0 1-6.804-6.804C.835 35.858 0 32.618 0 26.577v-5.154c0-6.041.835-9.281 2.404-12.215a16.356 16.356 0 0 1 6.804-6.804C12.142.835 15.382 0 21.423 0z"/>
    </defs>
    <g fill="none" fill-rule="evenodd">
        <mask id="c" fill="#fff">
            <use xlink:href="#b"/>
        </mask>
        <use fill="#7E61F8" xlink:href="#b"/>
        <path fill="#FFF" d="M23.869 17.832A7.413 7.413 0 0 0 18.044 15c-4.088 0-7.544 3.403-7.544 7.43v8.93c0 .844.815 1.64 1.678 1.64.883 0 1.6-.735 1.6-1.64v-8.93c.041-2.33 1.915-4.152 4.266-4.152 2.326 0 4.15 1.822 4.152 4.149v8.934c.021.906.761 1.639 1.638 1.639a1.63 1.63 0 0 0 1.641-1.64v-8.93c.04-2.33 1.913-4.152 4.263-4.152 2.329 0 4.153 1.824 4.153 4.153v8.93c0 .888.75 1.639 1.638 1.639.874 0 1.64-.766 1.64-1.64v-8.93c0-4.096-3.332-7.43-7.43-7.43-2.343 0-4.474 1.12-5.87 2.832z" mask="url(#c)"/>
    </g>
</svg>
